# File produced by Open Asset Import Library (http://www.assimp.sf.net)
# (assimp v5.0.0)

mtllib shut the fuck up.mtl

# 116 vertex positions
v  -49.254799 64 -43.254841
v  -52 64 -39.677261
v  -52 192 -39.677261
v  -49.254799 192 -43.254841
v  -36 192 -53.425629
v  -36 64 -53.425629
v  -20.5644 192 -59.81926
v  -20.5644 64 -59.81926
v  -4 192 -62
v  -4 64 -62
v  12.5645 192 -59.819241
v  12.5645 64 -59.819241
v  28 192 -53.425629
v  28 64 -53.425629
v  41.254902 192 -43.254822
v  41.254902 64 -43.254822
v  -52 64 -38
v  44 64 -38
v  44 192 -38
v  -52 192 -38
v  64 224 4
v  61.682899 224 21.599701
v  54.889702 224 38
v  44.083302 224 52.08326
v  30 224 62.889729
v  13.5997 224 69.682953
v  -4 224 72
v  -21.599701 224 69.682953
v  -38 224 62.889721
v  -52.083302 224 52.08326
v  -62.889702 224 38
v  -69.682999 224 21.599689
v  -72 224 3.9999948
v  -69.682899 224 -13.59971
v  -62.889702 224 -30
v  -52.083302 224 -44.08326
v  -38 224 -54.889729
v  -21.599701 224 -61.682949
v  -4 224 -64
v  13.5997 224 -61.682949
v  30 224 -54.889729
v  44.083302 224 -44.083241
v  54.889702 224 -29.999981
v  61.682899 224 -13.59968
v  61.682899 256 -13.59968
v  54.889702 256 -29.999981
v  44.083302 256 -44.083241
v  30 256 -54.889729
v  13.5997 256 -61.682949
v  -4 256 -64
v  -21.599701 256 -61.682949
v  -38 256 -54.889729
v  -52.083302 256 -44.08326
v  -62.889702 256 -30
v  -69.682899 256 -13.59971
v  -72 256 3.9999948
v  -69.682999 256 21.599689
v  -62.889702 256 38
v  -52.083302 256 52.08326
v  -38 256 62.889721
v  -21.599701 256 69.682953
v  -4 256 72
v  13.5997 256 69.682953
v  30 256 62.889729
v  44.083302 256 52.08326
v  54.889702 256 38
v  61.682899 256 21.599701
v  64 256 4
v  60 0 4
v  57.819199 0 20.564421
v  51.425598 0 36
v  41.254799 0 49.254829
v  28 0 59.425629
v  12.5644 0 65.819252
v  -4 0 68
v  -20.5644 0 65.819252
v  -36 0 59.425621
v  -49.254799 0 49.254829
v  -59.425598 0 36
v  -65.819298 0 20.564409
v  -68 0 3.9999945
v  -65.819199 0 -12.56444
v  -59.425598 0 -28
v  -49.254799 0 -41.254841
v  -36 0 -51.425629
v  -20.5644 0 -57.81926
v  -4 0 -60
v  12.5645 0 -57.819241
v  28 0 -51.425629
v  41.254902 0 -41.254822
v  51.425598 0 -27.999981
v  57.819199 0 -12.56441
v  57.819199 224 -12.56441
v  51.425598 224 -27.999981
v  41.254902 224 -41.254822
v  28 224 -51.425629
v  12.5645 224 -57.819241
v  -4 224 -60
v  -20.5644 224 -57.81926
v  -36 224 -51.425629
v  -49.254799 224 -41.254841
v  -59.425598 224 -28
v  -65.819199 224 -12.56444
v  -68 224 3.9999945
v  -65.819298 224 20.564409
v  -59.425598 224 36
v  -49.254799 224 49.254829
v  -36 224 59.425621
v  -20.5644 224 65.819252
v  -4 224 68
v  12.5644 224 65.819252
v  28 224 59.425629
v  41.254799 224 49.254829
v  51.425598 224 36
v  57.819199 224 20.564421
v  60 224 4

# 150 UV coordinates
vt -0.55504453 -0.21484375 0
vt -0.531753 -0.21484375 0
vt -0.531753 -0.71484375 0
vt -0.55504453 -0.71484375 0
vt 0.12464323 -0.21484375 0
vt 0.12464323 -0.71484375 0
vt 0.2109375 -0.71484375 0
vt 0.2109375 -0.21484375 0
vt 0.31142968 -0.71484375 0
vt 0.31142968 -0.21484375 0
vt 0.41927084 -0.71484375 0
vt 0.41927084 -0.21484375 0
vt 0.5271126 -0.71484375 0
vt 0.5271126 -0.21484375 0
vt 0.62760419 -0.71484375 0
vt 0.62760419 -0.21484375 0
vt 0.71389908 -0.71484375 0
vt 0.71389908 -0.21484375 0
vt 0.083854169 0.025 0
vt 0.12135417 0.025 0
vt 0.12135417 -0.025 0
vt 0.083854169 -0.025 0
vt 0.93359375 0.49479166 0
vt 0.91850847 0.38021028 0
vt 0.87428188 0.2734375 0
vt 0.80392772 0.18174961 0
vt 0.71223956 0.11139499 0
vt 0.60546678 0.067168295 0
vt 0.49088541 0.052083332 0
vt 0.37630403 0.067168295 0
vt 0.26953125 0.11139505 0
vt 0.17784309 0.18174961 0
vt 0.10748893 0.2734375 0
vt 0.063261718 0.38021034 0
vt 0.048177082 0.49479169 0
vt 0.063262373 0.60937309 0
vt 0.10748893 0.71614581 0
vt 0.17784309 0.80783373 0
vt 0.26953125 0.87818837 0
vt 0.37630403 0.92241502 0
vt 0.49088541 0.9375 0
vt 0.60546678 0.92241502 0
vt 0.71223956 0.87818837 0
vt 0.80392772 0.80783361 0
vt 0.87428188 0.71614569 0
vt 0.91850847 0.60937291 0
vt -0.17578125 -1.3385416 0
vt -0.06119987 -1.3385416 0
vt -0.06119987 -1.1302084 0
vt -0.17578125 -1.1302084 0
vt 0.045572918 -1.3385416 0
vt 0.045572918 -1.1302084 0
vt 0.13726081 -1.3385416 0
vt 0.13726081 -1.1302084 0
vt 0.80392772 -1.3385416 0
vt 0.71223956 -1.3385416 0
vt 0.71223956 -1.1302084 0
vt 0.80392772 -1.1302084 0
vt 0.60546678 -1.3385416 0
vt 0.60546678 -1.1302084 0
vt 0.49088541 -1.3385416 0
vt 0.49088541 -1.1302084 0
vt 0.37630403 -1.3385416 0
vt 0.37630403 -1.1302084 0
vt 0.26953125 -1.3385416 0
vt 0.26953125 -1.1302084 0
vt 0.17784309 -1.3385416 0
vt 0.17784309 -1.1302084 0
vt -0.061199933 -1.3385416 0
vt -0.061199933 -1.1302084 0
vt -0.17578128 -1.3385416 0
vt -0.17578128 -1.1302084 0
vt -0.29036269 -1.3385416 0
vt -0.29036269 -1.1302084 0
vt -0.39713541 -1.3385416 0
vt -0.39713541 -1.1302084 0
vt -0.48882329 -1.3385416 0
vt -0.48882329 -1.1302084 0
vt -0.48882318 -1.3385416 0
vt -0.39713529 -1.3385416 0
vt -0.39713529 -1.1302084 0
vt -0.48882318 -1.1302084 0
vt -0.29036251 -1.3385416 0
vt -0.29036251 -1.1302084 0
vt 0.0125 -0 0
vt 0.012414812 -0.00064704765 0
vt 0.012165062 -0.00125 0
vt 0.011767766 -0.0017677668 0
vt 0.01125 -0.0021650637 0
vt 0.010647047 -0.0024148144 0
vt 0.0099999998 -0.0024999999 0
vt 0.0093529532 -0.0024148144 0
vt 0.00875 -0.0021650633 0
vt 0.008232234 -0.0017677668 0
vt 0.0078349374 -0.00125 0
vt 0.0075851837 -0.00064704724 0
vt 0.0074999998 2.1855695e-10 0
vt 0.0075851874 0.00064704847 0
vt 0.0078349374 0.00125 0
vt 0.008232234 0.0017677672 0
vt 0.00875 0.0021650637 0
vt 0.0093529532 0.0024148149 0
vt 0.0099999998 0.0024999999 0
vt 0.010647051 0.002414814 0
vt 0.01125 0.0021650637 0
vt 0.011767769 0.0017677664 0
vt 0.012165062 0.0012499993 0
vt 0.012414812 0.00064704724 0
vt 0 -0.0037499999 0
vt 0.00064704765 -0.0037499999 0
vt 0.00064704765 0.0049999999 0
vt 0 0.0049999999 0
vt 0.00125 -0.0037499999 0
vt 0.00125 0.0049999999 0
vt 0.0017677668 -0.0037499999 0
vt 0.0017677668 0.0049999999 0
vt 0.011767766 -0.0037499999 0
vt 0.01125 -0.0037499999 0
vt 0.01125 0.0049999999 0
vt 0.011767766 0.0049999999 0
vt 0.010647047 -0.0037499999 0
vt 0.010647047 0.0049999999 0
vt 0.0099999998 -0.0037499999 0
vt 0.0099999998 0.0049999999 0
vt 0.0093529532 -0.0037499999 0
vt 0.0093529532 0.0049999999 0
vt 0.00875 -0.0037499999 0
vt 0.00875 0.0049999999 0
vt 0.008232234 -0.0037499999 0
vt 0.008232234 0.0049999999 0
vt 0.00064704724 -0.0037499999 0
vt 0.00064704724 0.0049999999 0
vt -2.1855695e-10 -0.0037499999 0
vt -2.1855695e-10 0.0049999999 0
vt -0.00064704847 -0.0037499999 0
vt -0.00064704847 0.0049999999 0
vt -0.00125 -0.0037499999 0
vt -0.00125 0.0049999999 0
vt -0.0017677672 -0.0037499999 0
vt -0.0017677672 0.0049999999 0
vt 0.010647051 -0.0037499999 0
vt 0.010647051 0.0049999999 0
vt 0.011767769 -0.0037499999 0
vt 0.011767769 0.0049999999 0
vt -0.0017677664 -0.0037499999 0
vt -0.0012499993 -0.0037499999 0
vt -0.0012499993 0.0049999999 0
vt -0.0017677664 0.0049999999 0
vt -0.00064704724 -0.0037499999 0
vt -0.00064704724 0.0049999999 0

# 52 vertex normals
vn -0.79335052 -0 -0.60876513
vn -0.60876232 -0 -0.79335266
vn -0.38268319 -0 -0.92387962
vn -0.13052592 -0 -0.99144489
vn 0.13052632 0 -0.99144483
vn 0.38268429 0 -0.92387921
vn 0.60876018 0 -0.79335427
vn 0 0 1
vn 0 -1 0
vn 0 1 0
vn 0.99144447 0 0.13052927
vn 0.92388004 0 0.38268214
vn 0.79335511 0 0.60875911
vn 0.60876048 0 0.79335403
vn 0.3826831 0 0.92387968
vn 0.1305265 0 0.99144483
vn -0.1305265 0 0.99144483
vn -0.3826836 0 0.92387944
vn -0.60876012 0 0.79335433
vn -0.79335511 0 0.60875911
vn -0.92387813 0 0.38268676
vn -0.99144518 0 0.13052377
vn -0.99144447 -0 -0.13052924
vn -0.92387998 -0 -0.38268235
vn -0.79335511 -0 -0.60875911
vn -0.60876048 -0 -0.79335403
vn -0.3826831 -0 -0.92387968
vn -0.1305265 -0 -0.99144483
vn 0.1305265 0 -0.99144483
vn 0.3826831 0 -0.92387968
vn 0.60876119 0 -0.7933535
vn 0.79335511 0 -0.60875911
vn 0.92388004 0 -0.38268214
vn 0.99144441 0 -0.13052942
vn 0.99144447 0 0.1305293
vn 0.9238801 0 0.38268209
vn 0.79335302 0 0.60876185
vn 0.60876274 0 0.79335237
vn 0.38268268 0 0.92387986
vn 0.13052651 0 0.99144483
vn -0.13052651 0 0.99144483
vn -0.38268319 0 0.92387962
vn -0.60876232 0 0.79335266
vn -0.79335302 0 0.60876185
vn -0.92387807 0 0.38268697
vn -0.99144524 0 0.13052344
vn -0.99144447 -0 -0.13052918
vn -0.92387992 -0 -0.3826825
vn -0.79335326 -0 -0.60876155
vn 0.79335612 0 -0.60875779
vn 0.92387998 0 -0.38268229
vn 0.99144447 0 -0.13052937

# Mesh '' with 16 faces
usemtl papertexture
f  1/1/1 2/2/1 3/3/1
f  1/1/1 3/3/1 4/4/1
f  1/5/2 4/6/2 5/7/2
f  1/5/2 5/7/2 6/8/2
f  6/8/3 5/7/3 7/9/3
f  6/8/3 7/9/3 8/10/3
f  8/10/4 7/9/4 9/11/4
f  8/10/4 9/11/4 10/12/4
f  10/12/5 9/11/5 11/13/5
f  10/12/5 11/13/5 12/14/5
f  12/14/6 11/13/6 13/15/6
f  12/14/6 13/15/6 14/16/6
f  14/16/7 13/15/7 15/17/7
f  14/16/7 15/17/7 16/18/7
f  17/19/8 18/20/8 19/21/8
f  17/19/8 19/21/8 20/22/8

# Mesh '' with 92 faces
usemtl red
f  21/23/9 22/24/9 23/25/9
f  21/23/9 23/25/9 24/26/9
f  21/23/9 24/26/9 25/27/9
f  21/23/9 25/27/9 26/28/9
f  21/23/9 26/28/9 27/29/9
f  21/23/9 27/29/9 28/30/9
f  21/23/9 28/30/9 29/31/9
f  21/23/9 29/31/9 30/32/9
f  21/23/9 30/32/9 31/33/9
f  21/23/9 31/33/9 32/34/9
f  21/23/9 32/34/9 33/35/9
f  21/23/9 33/35/9 34/36/9
f  21/23/9 34/36/9 35/37/9
f  21/23/9 35/37/9 36/38/9
f  21/23/9 36/38/9 37/39/9
f  21/23/9 37/39/9 38/40/9
f  21/23/9 38/40/9 39/41/9
f  21/23/9 39/41/9 40/42/9
f  21/23/9 40/42/9 41/43/9
f  21/23/9 41/43/9 42/44/9
f  21/23/9 42/44/9 43/45/9
f  21/23/9 43/45/9 44/46/9
f  45/46/10 46/45/10 47/44/10
f  45/46/10 47/44/10 48/43/10
f  45/46/10 48/43/10 49/42/10
f  45/46/10 49/42/10 50/41/10
f  45/46/10 50/41/10 51/40/10
f  45/46/10 51/40/10 52/39/10
f  45/46/10 52/39/10 53/38/10
f  45/46/10 53/38/10 54/37/10
f  45/46/10 54/37/10 55/36/10
f  45/46/10 55/36/10 56/35/10
f  45/46/10 56/35/10 57/34/10
f  45/46/10 57/34/10 58/33/10
f  45/46/10 58/33/10 59/32/10
f  45/46/10 59/32/10 60/31/10
f  45/46/10 60/31/10 61/30/10
f  45/46/10 61/30/10 62/29/10
f  45/46/10 62/29/10 63/28/10
f  45/46/10 63/28/10 64/27/10
f  45/46/10 64/27/10 65/26/10
f  45/46/10 65/26/10 66/25/10
f  45/46/10 66/25/10 67/24/10
f  45/46/10 67/24/10 68/23/10
f  68/47/11 67/48/11 22/49/11
f  68/47/11 22/49/11 21/50/11
f  67/48/12 66/51/12 23/52/12
f  67/48/12 23/52/12 22/49/12
f  66/51/13 65/53/13 24/54/13
f  66/51/13 24/54/13 23/52/13
f  65/55/14 64/56/14 25/57/14
f  65/55/14 25/57/14 24/58/14
f  64/56/15 63/59/15 26/60/15
f  64/56/15 26/60/15 25/57/15
f  63/59/16 62/61/16 27/62/16
f  63/59/16 27/62/16 26/60/16
f  62/61/17 61/63/17 28/64/17
f  62/61/17 28/64/17 27/62/17
f  61/63/18 60/65/18 29/66/18
f  61/63/18 29/66/18 28/64/18
f  60/65/19 59/67/19 30/68/19
f  60/65/19 30/68/19 29/66/19
f  59/53/20 58/51/20 31/52/20
f  59/53/20 31/52/20 30/54/20
f  58/51/21 57/69/21 32/70/21
f  58/51/21 32/70/21 31/52/21
f  57/69/22 56/71/22 33/72/22
f  57/69/22 33/72/22 32/70/22
f  56/71/23 55/73/23 34/74/23
f  56/71/23 34/74/23 33/72/23
f  55/73/24 54/75/24 35/76/24
f  55/73/24 35/76/24 34/74/24
f  54/75/25 53/77/25 36/78/25
f  54/75/25 36/78/25 35/76/25
f  53/67/26 52/65/26 37/66/26
f  53/67/26 37/66/26 36/68/26
f  52/65/27 51/63/27 38/64/27
f  52/65/27 38/64/27 37/66/27
f  51/63/28 50/61/28 39/62/28
f  51/63/28 39/62/28 38/64/28
f  50/61/29 49/59/29 40/60/29
f  50/61/29 40/60/29 39/62/29
f  49/59/30 48/56/30 41/57/30
f  49/59/30 41/57/30 40/60/30
f  48/56/31 47/55/31 42/58/31
f  48/56/31 42/58/31 41/57/31
f  47/79/32 46/80/32 43/81/32
f  47/79/32 43/81/32 42/82/32
f  46/80/33 45/83/33 44/84/33
f  46/80/33 44/84/33 43/81/33
f  45/83/34 68/47/34 21/50/34
f  45/83/34 21/50/34 44/84/34

# Mesh '' with 92 faces
usemtl glass
f  69/85/9 70/86/9 71/87/9
f  69/85/9 71/87/9 72/88/9
f  69/85/9 72/88/9 73/89/9
f  69/85/9 73/89/9 74/90/9
f  69/85/9 74/90/9 75/91/9
f  69/85/9 75/91/9 76/92/9
f  69/85/9 76/92/9 77/93/9
f  69/85/9 77/93/9 78/94/9
f  69/85/9 78/94/9 79/95/9
f  69/85/9 79/95/9 80/96/9
f  69/85/9 80/96/9 81/97/9
f  69/85/9 81/97/9 82/98/9
f  69/85/9 82/98/9 83/99/9
f  69/85/9 83/99/9 84/100/9
f  69/85/9 84/100/9 85/101/9
f  69/85/9 85/101/9 86/102/9
f  69/85/9 86/102/9 87/103/9
f  69/85/9 87/103/9 88/104/9
f  69/85/9 88/104/9 89/105/9
f  69/85/9 89/105/9 90/106/9
f  69/85/9 90/106/9 91/107/9
f  69/85/9 91/107/9 92/108/9
f  93/108/10 94/107/10 95/106/10
f  93/108/10 95/106/10 96/105/10
f  93/108/10 96/105/10 97/104/10
f  93/108/10 97/104/10 98/103/10
f  93/108/10 98/103/10 99/102/10
f  93/108/10 99/102/10 100/101/10
f  93/108/10 100/101/10 101/100/10
f  93/108/10 101/100/10 102/99/10
f  93/108/10 102/99/10 103/98/10
f  93/108/10 103/98/10 104/97/10
f  93/108/10 104/97/10 105/96/10
f  93/108/10 105/96/10 106/95/10
f  93/108/10 106/95/10 107/94/10
f  93/108/10 107/94/10 108/93/10
f  93/108/10 108/93/10 109/92/10
f  93/108/10 109/92/10 110/91/10
f  93/108/10 110/91/10 111/90/10
f  93/108/10 111/90/10 112/89/10
f  93/108/10 112/89/10 113/88/10
f  93/108/10 113/88/10 114/87/10
f  93/108/10 114/87/10 115/86/10
f  93/108/10 115/86/10 116/85/10
f  116/109/35 115/110/35 70/111/35
f  116/109/35 70/111/35 69/112/35
f  115/110/36 114/113/36 71/114/36
f  115/110/36 71/114/36 70/111/36
f  114/113/37 113/115/37 72/116/37
f  114/113/37 72/116/37 71/114/37
f  113/117/38 112/118/38 73/119/38
f  113/117/38 73/119/38 72/120/38
f  112/118/39 111/121/39 74/122/39
f  112/118/39 74/122/39 73/119/39
f  111/121/40 110/123/40 75/124/40
f  111/121/40 75/124/40 74/122/40
f  110/123/41 109/125/41 76/126/41
f  110/123/41 76/126/41 75/124/41
f  109/125/42 108/127/42 77/128/42
f  109/125/42 77/128/42 76/126/42
f  108/127/43 107/129/43 78/130/43
f  108/127/43 78/130/43 77/128/43
f  107/115/44 106/113/44 79/114/44
f  107/115/44 79/114/44 78/116/44
f  106/113/45 105/131/45 80/132/45
f  106/113/45 80/132/45 79/114/45
f  105/131/46 104/133/46 81/134/46
f  105/131/46 81/134/46 80/132/46
f  104/133/47 103/135/47 82/136/47
f  104/133/47 82/136/47 81/134/47
f  103/135/48 102/137/48 83/138/48
f  103/135/48 83/138/48 82/136/48
f  102/137/49 101/139/49 84/140/49
f  102/137/49 84/140/49 83/138/49
f  101/129/2 100/127/2 85/128/2
f  101/129/2 85/128/2 84/130/2
f  100/127/3 99/125/3 86/126/3
f  100/127/3 86/126/3 85/128/3
f  99/125/4 98/123/4 87/124/4
f  99/125/4 87/124/4 86/126/4
f  98/123/5 97/141/5 88/142/5
f  98/123/5 88/142/5 87/124/5
f  97/141/6 96/118/6 89/119/6
f  97/141/6 89/119/6 88/142/6
f  96/118/7 95/143/7 90/144/7
f  96/118/7 90/144/7 89/119/7
f  95/145/50 94/146/50 91/147/50
f  95/145/50 91/147/50 90/148/50
f  94/146/51 93/149/51 92/150/51
f  94/146/51 92/150/51 91/147/51
f  93/149/52 116/109/52 69/112/52
f  93/149/52 69/112/52 92/150/52

